<svg xmlns="http://www.w3.org/2000/svg" viewBox="0 0 200 200" width="200" height="200">
  <defs>
    <linearGradient id="gT" x1="0%" y1="0%" x2="100%" y2="100%">
      <stop offset="0%" stop-color="#6366f1"/>
      <stop offset="100%" stop-color="#8b5cf6"/>
    </linearGradient>
    <linearGradient id="gB" x1="0%" y1="0%" x2="100%" y2="100%">
      <stop offset="0%" stop-color="#a78bfa"/>
      <stop offset="100%" stop-color="#6366f1"/>
    </linearGradient>
  </defs>
  <rect width="200" height="200" rx="44" fill="#0f0f23"/>
  <circle cx="100" cy="100" r="65" fill="#6366f1" fill-opacity="0.07"/>
  <path d="M 60 84 C 60 66,74 54,100 54 C 126 54,140 66,140 80 C 140 93,130 100,112 106 L 96 111"
    fill="none" stroke="url(#gT)" stroke-width="13" stroke-linecap="round"/>
  <path d="M 104 111 L 88 116 C 70 122,60 132,60 147 C 60 165,76 175,100 175 C 124 175,140 165,140 147"
    fill="none" stroke="url(#gB)" stroke-width="13" stroke-linecap="round"/>
  <circle cx="148" cy="172" r="10" fill="#8b5cf6" fill-opacity="0.45"/>
  <circle cx="148" cy="172" r="5.5" fill="white" fill-opacity="0.97"/>
</svg>
